<svg width="42" height="39" viewBox="0 0 42 39" fill="none" xmlns="http://www.w3.org/2000/svg">
<path d="M1.5 31V7.72727H17.8636V12.8182H7.81818V16.8182H16.8636V21.9091H7.81818V31H1.5Z" fill="black"/>
<path d="M21.5 31V7.72727H31.5455C33.2727 7.72727 34.7841 8.04167 36.0795 8.67045C37.375 9.29924 38.3826 10.2045 39.1023 11.3864C39.822 12.5682 40.1818 13.9848 40.1818 15.6364C40.1818 17.303 39.8106 18.7083 39.0682 19.8523C38.3333 20.9962 37.2992 21.8598 35.9659 22.4432C34.6402 23.0265 33.0909 23.3182 31.3182 23.3182H25.3182V18.4091H30.0455C30.7879 18.4091 31.4205 18.3182 31.9432 18.1364C32.4735 17.947 32.8788 17.6477 33.1591 17.2386C33.447 16.8295 33.5909 16.2955 33.5909 15.6364C33.5909 14.9697 33.447 14.428 33.1591 14.0114C32.8788 13.5871 32.4735 13.2765 31.9432 13.0795C31.4205 12.875 30.7879 12.7727 30.0455 12.7727H27.8182V31H21.5ZM35.1364 20.3182L40.9545 31H34.0909L28.4091 20.3182H35.1364Z" fill="black"/>
<rect x="16" y="7.72998" width="7" height="5.09" fill="black"/>
</svg>
